<mxfile host="app.diagrams.net" modified="2023-10-22T14:38:07.541Z" agent="Mozilla/5.0 (Windows NT 10.0; Win64; x64) AppleWebKit/537.36 (KHTML, like Gecko) Chrome/118.0.0.0 Safari/537.36" etag="fxj8H5eDRKm6DU3m5zuB" version="22.0.6" type="github">
  <diagram name="Страница — 1" id="bQbGD88xGSw51-Dq0FHA">
    <mxGraphModel dx="1050" dy="581" grid="1" gridSize="10" guides="1" tooltips="1" connect="1" arrows="1" fold="1" page="1" pageScale="1" pageWidth="827" pageHeight="1169" math="0" shadow="0">
      <root>
        <mxCell id="0" />
        <mxCell id="1" parent="0" />
        <mxCell id="BiCyNR3LBGDsSaMnFnqy-3" style="edgeStyle=orthogonalEdgeStyle;rounded=0;orthogonalLoop=1;jettySize=auto;html=1;exitX=0.5;exitY=1;exitDx=0;exitDy=0;entryX=0.5;entryY=1;entryDx=0;entryDy=0;" edge="1" parent="1" source="BiCyNR3LBGDsSaMnFnqy-1" target="BiCyNR3LBGDsSaMnFnqy-2">
          <mxGeometry relative="1" as="geometry" />
        </mxCell>
        <mxCell id="BiCyNR3LBGDsSaMnFnqy-1" value="Door_opened" style="ellipse;whiteSpace=wrap;html=1;" vertex="1" parent="1">
          <mxGeometry x="130" y="160" width="120" height="80" as="geometry" />
        </mxCell>
        <mxCell id="BiCyNR3LBGDsSaMnFnqy-4" style="edgeStyle=orthogonalEdgeStyle;rounded=0;orthogonalLoop=1;jettySize=auto;html=1;exitX=0.5;exitY=0;exitDx=0;exitDy=0;entryX=0.5;entryY=0;entryDx=0;entryDy=0;" edge="1" parent="1" source="BiCyNR3LBGDsSaMnFnqy-2" target="BiCyNR3LBGDsSaMnFnqy-1">
          <mxGeometry relative="1" as="geometry" />
        </mxCell>
        <mxCell id="BiCyNR3LBGDsSaMnFnqy-2" value="Door_closed" style="ellipse;whiteSpace=wrap;html=1;" vertex="1" parent="1">
          <mxGeometry x="460" y="160" width="120" height="80" as="geometry" />
        </mxCell>
        <mxCell id="BiCyNR3LBGDsSaMnFnqy-9" value="" style="curved=1;endArrow=classic;html=1;rounded=0;exitX=0;exitY=1;exitDx=0;exitDy=0;entryX=0;entryY=0;entryDx=0;entryDy=0;" edge="1" parent="1" source="BiCyNR3LBGDsSaMnFnqy-1" target="BiCyNR3LBGDsSaMnFnqy-1">
          <mxGeometry width="50" height="50" relative="1" as="geometry">
            <mxPoint x="70" y="220" as="sourcePoint" />
            <mxPoint x="120" y="170" as="targetPoint" />
            <Array as="points">
              <mxPoint x="70" y="220" />
              <mxPoint x="70" y="170" />
            </Array>
          </mxGeometry>
        </mxCell>
        <mxCell id="BiCyNR3LBGDsSaMnFnqy-10" value="" style="curved=1;endArrow=classic;html=1;rounded=0;exitX=1;exitY=1;exitDx=0;exitDy=0;entryX=1;entryY=0;entryDx=0;entryDy=0;" edge="1" parent="1" source="BiCyNR3LBGDsSaMnFnqy-2" target="BiCyNR3LBGDsSaMnFnqy-2">
          <mxGeometry width="50" height="50" relative="1" as="geometry">
            <mxPoint x="590" y="230" as="sourcePoint" />
            <mxPoint x="640" y="180" as="targetPoint" />
            <Array as="points">
              <mxPoint x="640" y="230" />
              <mxPoint x="630" y="180" />
            </Array>
          </mxGeometry>
        </mxCell>
        <mxCell id="BiCyNR3LBGDsSaMnFnqy-11" value="&lt;font style=&quot;font-size: 15px;&quot;&gt;waterLevel_equal&lt;/font&gt;" style="text;html=1;strokeColor=none;fillColor=none;align=center;verticalAlign=middle;whiteSpace=wrap;rounded=0;" vertex="1" parent="1">
          <mxGeometry x="320" y="110" width="60" height="30" as="geometry" />
        </mxCell>
        <mxCell id="BiCyNR3LBGDsSaMnFnqy-12" value="&lt;font style=&quot;font-size: 15px;&quot;&gt;waterLevel_equal&lt;/font&gt;" style="text;html=1;strokeColor=none;fillColor=none;align=center;verticalAlign=middle;whiteSpace=wrap;rounded=0;" vertex="1" parent="1">
          <mxGeometry x="60" y="140" width="60" height="30" as="geometry" />
        </mxCell>
        <mxCell id="BiCyNR3LBGDsSaMnFnqy-13" value="&lt;font style=&quot;font-size: 15px;&quot;&gt;waterLevel_right || waterLevel_left&lt;/font&gt;" style="text;html=1;strokeColor=none;fillColor=none;align=center;verticalAlign=middle;whiteSpace=wrap;rounded=0;" vertex="1" parent="1">
          <mxGeometry x="230" y="270" width="280" height="20" as="geometry" />
        </mxCell>
        <mxCell id="BiCyNR3LBGDsSaMnFnqy-14" value="&lt;font style=&quot;font-size: 15px;&quot;&gt;waterLevel_right || waterLevel_left&lt;/font&gt;" style="text;html=1;strokeColor=none;fillColor=none;align=center;verticalAlign=middle;whiteSpace=wrap;rounded=0;rotation=90;" vertex="1" parent="1">
          <mxGeometry x="500" y="190" width="280" height="20" as="geometry" />
        </mxCell>
      </root>
    </mxGraphModel>
  </diagram>
</mxfile>
